<?xml version="1.0" encoding="UTF-8" standalone="no"?>
<svg
   xmlns:dc="http://purl.org/dc/elements/1.1/"
   xmlns:cc="http://creativecommons.org/ns#"
   xmlns:rdf="http://www.w3.org/1999/02/22-rdf-syntax-ns#"
   xmlns:svg="http://www.w3.org/2000/svg"
   xmlns="http://www.w3.org/2000/svg"
   width="256"
   height="256"
   viewBox="0 0 67.733331 67.733331"
   version="1.1"
   id="svg8">
  <defs
     id="defs2" />
  <metadata
     id="metadata5">
    <rdf:RDF>
      <cc:Work
         rdf:about="">
        <dc:format>image/svg+xml</dc:format>
        <dc:type
           rdf:resource="http://purl.org/dc/dcmitype/StillImage" />
        <dc:title></dc:title>
      </cc:Work>
    </rdf:RDF>
  </metadata>
  <g
     id="layer1"
     transform="translate(0,-229.26668)">
    <g
       id="g4584"
       transform="translate(0.89858731,1.0171059e-5)">
      <g
         aria-label="⊕"
         style="font-style:normal;font-variant:normal;font-weight:normal;font-stretch:normal;font-size:52.18190765px;line-height:1.25;font-family:serif;-inkscape-font-specification:serif;letter-spacing:0px;word-spacing:0px;fill:#000000;fill-opacity:1;stroke:none;stroke-width:1.30454767"
         id="text4542">
        <path
           d="m 1.9145348,271.33773 q -2.19123241,-3.77096 -2.19123241,-8.20439 0,-4.43342 2.19123241,-8.20438 2.1912325,-3.77096 5.9621907,-5.96219 3.7709585,-2.19123 8.2043815,-2.19123 4.433424,0 8.204382,2.19123 3.770959,2.19123 5.962191,5.96219 2.191232,3.77096 2.191232,8.20438 0,4.43343 -2.191232,8.20439 -2.191232,3.77096 -5.962191,5.96219 -3.770958,2.19123 -8.204382,2.19123 -4.433423,0 -8.2043815,-2.19123 -3.7709582,-2.19123 -5.9621907,-5.96219 z M 3.9783701,261.06951 H 14.042752 v -10.06438 q -2.165753,0.35671 -4.1021913,1.50329 -2.8282186,1.65616 -4.4843827,4.48438 -1.1210957,1.93644 -1.4778079,4.07671 z M 18.119463,251.00513 v 10.06438 h 10.064382 q -0.356712,-2.14027 -1.477808,-4.07671 -1.656164,-2.82822 -4.484383,-4.48438 -1.936438,-1.14658 -4.102191,-1.50329 z m 10.064382,14.19205 H 18.119463 v 10.06438 q 2.165753,-0.35671 4.102191,-1.50329 2.828219,-1.65616 4.484383,-4.48438 1.121096,-1.93644 1.477808,-4.07671 z M 14.042752,275.26156 V 265.19718 H 3.9783701 q 0.3567122,2.14027 1.4778079,4.07671 1.6561641,2.82822 4.4843827,4.48438 1.9364383,1.14658 4.1021913,1.50329 z"
           style="font-style:normal;font-variant:normal;font-weight:normal;font-stretch:normal;font-family:serif;-inkscape-font-specification:serif;stroke-width:1.30454767"
           id="path4680" />
      </g>
      <g
         aria-label="⊗"
         style="font-style:normal;font-variant:normal;font-weight:normal;font-stretch:normal;font-size:52.18193817px;line-height:1.25;font-family:serif;-inkscape-font-specification:serif;letter-spacing:0px;word-spacing:0px;display:inline;fill:#000000;fill-opacity:1;stroke:none;stroke-width:1.30454826"
         id="text4520-0">
        <path
           d="m 35.688478,271.33772 q -2.191233,-3.77096 -2.191233,-8.20438 0,-4.43343 2.191233,-8.20439 2.191234,-3.77096 5.962195,-5.9622 3.77096,-2.19123 8.204386,-2.19123 4.433427,0 8.204387,2.19123 3.77096,2.19124 5.962194,5.9622 2.191234,3.77096 2.191234,8.20439 0,4.43342 -2.191234,8.20438 -2.191234,3.77096 -5.962194,5.9622 -3.77096,2.19123 -8.204387,2.19123 -4.433426,0 -8.204386,-2.19123 -3.770961,-2.19124 -5.962195,-5.9622 z m 3.541646,-14.34494 q -1.656165,2.82823 -1.656165,6.14056 0,3.31233 1.656165,6.14055 0.305753,0.50958 0.636986,0.96822 l 7.057811,-7.0833 -7.08329,-7.13424 q -0.331233,0.48411 -0.611507,0.96821 z m 3.516165,-3.87287 7.10877,7.10877 7.10877,-7.10877 q -0.45863,-0.33124 -0.968219,-0.61151 -2.828221,-1.65617 -6.140551,-1.65617 -3.31233,0 -6.14055,1.65617 -0.509589,0.28027 -0.96822,0.61151 z m 17.122199,2.90466 -7.134249,7.13424 7.108769,7.0833 q 0.331233,-0.45864 0.636987,-0.96822 1.656165,-2.82822 1.656165,-6.14055 0,-3.31233 -1.656165,-6.14056 -0.280274,-0.50958 -0.611507,-0.96821 z m -2.904659,17.09671 -7.10877,-7.08329 -7.10877,7.08329 q 0.458631,0.33124 0.96822,0.63699 2.82822,1.65617 6.14055,1.65617 3.31233,0 6.140551,-1.65617 0.509589,-0.30575 0.968219,-0.63699 z"
           style="font-style:normal;font-variant:normal;font-weight:normal;font-stretch:normal;font-family:serif;-inkscape-font-specification:serif;stroke-width:1.30454826"
           id="path4683" />
      </g>
    </g>
  </g>
</svg>
